<svg xmlns="http://www.w3.org/2000/svg" xmlns:xlink="http://www.w3.org/1999/xlink" width="500" zoomAndPan="magnify" viewBox="0 0 375 374.999991" height="500" preserveAspectRatio="xMidYMid meet" version="1.0"><defs><g/><clipPath id="6fb53150e7"><path d="M 134.8125 105.820312 L 240.5625 105.820312 L 240.5625 211.570312 L 134.8125 211.570312 Z M 134.8125 105.820312 " clip-rule="nonzero"/></clipPath></defs><g clip-path="url(#6fb53150e7)"><path fill="#f87227" d="M 187.695312 105.8125 C 186.386719 105.8125 185.089844 105.859375 183.804688 105.953125 L 183.804688 118.53125 C 185.085938 118.40625 186.382812 118.339844 187.695312 118.339844 C 209.941406 118.339844 228.039062 136.441406 228.039062 158.6875 C 228.039062 180.933594 209.941406 199.03125 187.695312 199.03125 C 165.449219 199.03125 147.347656 180.933594 147.347656 158.6875 C 147.347656 146.597656 152.699219 135.742188 161.148438 128.339844 L 161.148438 164.003906 C 161.148438 178.539062 172.972656 190.363281 187.507812 190.363281 L 187.878906 190.363281 C 202.414062 190.363281 214.238281 178.539062 214.238281 164.003906 C 214.238281 149.46875 202.414062 137.644531 187.878906 137.644531 L 183.804688 137.644531 L 183.804688 150.175781 L 187.878906 150.175781 C 195.503906 150.175781 201.707031 156.378906 201.707031 164.003906 C 201.707031 171.628906 195.503906 177.832031 187.878906 177.832031 L 187.507812 177.832031 C 179.882812 177.832031 173.679688 171.628906 173.679688 164.003906 L 173.679688 107.699219 C 171.640625 108.261719 169.648438 108.941406 167.714844 109.734375 C 165.441406 110.664062 163.25 111.746094 161.148438 112.972656 C 145.417969 122.144531 134.820312 139.199219 134.820312 158.6875 C 134.820312 187.84375 158.539062 211.5625 187.695312 211.5625 C 216.851562 211.5625 240.570312 187.84375 240.570312 158.6875 C 240.570312 129.53125 216.851562 105.8125 187.695312 105.8125 " fill-opacity="1" fill-rule="nonzero"/></g><g fill="#0d09c4" fill-opacity="1"><g transform="translate(117.694882, 246.891459)"><g><path d="M 2.375 -22 L 10.0625 -22 C 13.050781 -22 15.269531 -21.554688 16.71875 -20.671875 C 18.164062 -19.785156 18.890625 -18.40625 18.890625 -16.53125 C 18.890625 -15.289062 18.570312 -14.234375 17.9375 -13.359375 C 17.3125 -12.492188 16.476562 -11.9375 15.4375 -11.6875 L 15.4375 -11.53125 C 16.800781 -11.164062 17.789062 -10.5625 18.40625 -9.71875 C 19.019531 -8.875 19.328125 -7.78125 19.328125 -6.4375 C 19.328125 -4.445312 18.578125 -2.875 17.078125 -1.71875 C 15.578125 -0.570312 13.53125 0 10.9375 0 L 2.375 0 Z M 8.328125 -13.5625 L 10.109375 -13.5625 C 10.960938 -13.5625 11.625 -13.734375 12.09375 -14.078125 C 12.5625 -14.429688 12.796875 -14.957031 12.796875 -15.65625 C 12.796875 -16.882812 11.863281 -17.5 10 -17.5 L 8.328125 -17.5 Z M 8.328125 -9.21875 L 8.328125 -4.59375 L 10.421875 -4.59375 C 12.273438 -4.59375 13.203125 -5.375 13.203125 -6.9375 C 13.203125 -7.664062 12.953125 -8.226562 12.453125 -8.625 C 11.960938 -9.019531 11.242188 -9.21875 10.296875 -9.21875 Z M 8.328125 -9.21875 "/></g></g></g><g fill="#0d09c4" fill-opacity="1"><g transform="translate(140.250376, 246.891459)"><g><path d="M 15.875 0 L 14.796875 -4.125 L 7.640625 -4.125 L 6.53125 0 L 0 0 L 7.1875 -22.09375 L 15.109375 -22.09375 L 22.390625 0 Z M 13.5625 -9 L 12.609375 -12.609375 C 12.390625 -13.410156 12.117188 -14.445312 11.796875 -15.71875 C 11.484375 -17 11.28125 -17.914062 11.1875 -18.46875 C 11.09375 -17.957031 10.910156 -17.113281 10.640625 -15.9375 C 10.378906 -14.769531 9.789062 -12.457031 8.875 -9 Z M 13.5625 -9 "/></g></g></g><g fill="#0d09c4" fill-opacity="1"><g transform="translate(164.416111, 246.891459)"><g><path d="M 21.171875 0 L 14.46875 0 L 10.109375 -8.421875 L 8.359375 -7.359375 L 8.359375 0 L 2.375 0 L 2.375 -22 L 8.359375 -22 L 8.359375 -12.453125 C 8.660156 -13.046875 9.265625 -13.984375 10.171875 -15.265625 L 14.796875 -22 L 21.296875 -22 L 14.359375 -12.140625 Z M 21.171875 0 "/></g></g></g><g fill="#0d09c4" fill-opacity="1"><g transform="translate(187.37793, 246.891459)"><g><path d="M 15.4375 0 L 2.375 0 L 2.375 -22 L 15.4375 -22 L 15.4375 -17.234375 L 8.328125 -17.234375 L 8.328125 -13.765625 L 14.921875 -13.765625 L 14.921875 -9 L 8.328125 -9 L 8.328125 -4.84375 L 15.4375 -4.84375 Z M 15.4375 0 "/></g></g></g><g fill="#0d09c4" fill-opacity="1"><g transform="translate(206.080882, 246.891459)"><g><path d="M 8.328125 -8.015625 L 8.328125 0 L 2.375 0 L 2.375 -22 L 9.59375 -22 C 15.570312 -22 18.5625 -19.832031 18.5625 -15.5 C 18.5625 -12.957031 17.316406 -10.988281 14.828125 -9.59375 L 21.234375 0 L 14.5 0 L 9.828125 -8.015625 Z M 8.328125 -12.484375 L 9.4375 -12.484375 C 11.507812 -12.484375 12.546875 -13.398438 12.546875 -15.234375 C 12.546875 -16.742188 11.53125 -17.5 9.5 -17.5 L 8.328125 -17.5 Z M 8.328125 -12.484375 "/></g></g></g><g fill="#0d09c4" fill-opacity="1"><g transform="translate(228.726667, 246.891459)"><g><path d="M 7.1875 -22 L 6.5625 -14.0625 L 2.4375 -14.0625 L 1.828125 -22 Z M 7.1875 -22 "/></g></g></g><g fill="#0d09c4" fill-opacity="1"><g transform="translate(239.513856, 246.891459)"><g><path d="M 16.765625 -6.6875 C 16.765625 -5.320312 16.414062 -4.109375 15.71875 -3.046875 C 15.03125 -1.984375 14.035156 -1.160156 12.734375 -0.578125 C 11.429688 0.00390625 9.898438 0.296875 8.140625 0.296875 C 6.679688 0.296875 5.453125 0.195312 4.453125 0 C 3.460938 -0.207031 2.429688 -0.566406 1.359375 -1.078125 L 1.359375 -6.375 C 2.492188 -5.800781 3.671875 -5.347656 4.890625 -5.015625 C 6.117188 -4.691406 7.242188 -4.53125 8.265625 -4.53125 C 9.148438 -4.53125 9.796875 -4.679688 10.203125 -4.984375 C 10.617188 -5.296875 10.828125 -5.691406 10.828125 -6.171875 C 10.828125 -6.472656 10.742188 -6.734375 10.578125 -6.953125 C 10.410156 -7.179688 10.144531 -7.410156 9.78125 -7.640625 C 9.414062 -7.878906 8.4375 -8.351562 6.84375 -9.0625 C 5.414062 -9.71875 4.34375 -10.347656 3.625 -10.953125 C 2.90625 -11.566406 2.367188 -12.269531 2.015625 -13.0625 C 1.671875 -13.851562 1.5 -14.789062 1.5 -15.875 C 1.5 -17.90625 2.238281 -19.488281 3.71875 -20.625 C 5.195312 -21.757812 7.222656 -22.328125 9.796875 -22.328125 C 12.078125 -22.328125 14.398438 -21.800781 16.765625 -20.75 L 14.953125 -16.15625 C 12.890625 -17.09375 11.113281 -17.5625 9.625 -17.5625 C 8.84375 -17.5625 8.273438 -17.425781 7.921875 -17.15625 C 7.578125 -16.882812 7.40625 -16.550781 7.40625 -16.15625 C 7.40625 -15.71875 7.628906 -15.328125 8.078125 -14.984375 C 8.523438 -14.648438 9.738281 -14.03125 11.71875 -13.125 C 13.613281 -12.269531 14.925781 -11.351562 15.65625 -10.375 C 16.394531 -9.394531 16.765625 -8.164062 16.765625 -6.6875 Z M 16.765625 -6.6875 "/></g></g></g><g fill="#0d09c4" fill-opacity="1"><g transform="translate(142.51947, 265.481409)"><g><path d="M 13.0625 0 L 9.546875 0 L 8.5 -4.796875 C 8.445312 -4.992188 8.367188 -5.390625 8.265625 -5.984375 C 8.160156 -6.585938 8.082031 -7.085938 8.03125 -7.484375 C 7.988281 -7.160156 7.921875 -6.753906 7.828125 -6.265625 C 7.742188 -5.785156 7.65625 -5.34375 7.5625 -4.9375 C 7.476562 -4.53125 7.113281 -2.882812 6.46875 0 L 2.953125 0 L 0.234375 -11 L 3.09375 -11 L 4.296875 -5.484375 C 4.566406 -4.265625 4.753906 -3.296875 4.859375 -2.578125 C 4.921875 -3.085938 5.035156 -3.78125 5.203125 -4.65625 C 5.367188 -5.53125 5.523438 -6.257812 5.671875 -6.84375 L 6.640625 -11 L 9.390625 -11 L 10.34375 -6.84375 C 10.5 -6.175781 10.660156 -5.40625 10.828125 -4.53125 C 10.992188 -3.65625 11.101562 -3.003906 11.15625 -2.578125 C 11.21875 -3.128906 11.394531 -4.09375 11.6875 -5.46875 L 12.90625 -11 L 15.78125 -11 Z M 13.0625 0 "/></g></g></g><g fill="#0d09c4" fill-opacity="1"><g transform="translate(161.968671, 265.481409)"><g><path d="M 7.71875 0 L 1.1875 0 L 1.1875 -11 L 7.71875 -11 L 7.71875 -8.609375 L 4.15625 -8.609375 L 4.15625 -6.890625 L 7.453125 -6.890625 L 7.453125 -4.5 L 4.15625 -4.5 L 4.15625 -2.421875 L 7.71875 -2.421875 Z M 7.71875 0 "/></g></g></g><g fill="#0d09c4" fill-opacity="1"><g transform="translate(173.863285, 265.481409)"><g><path d="M 1.1875 -11 L 5.03125 -11 C 6.519531 -11 7.625 -10.773438 8.34375 -10.328125 C 9.070312 -9.890625 9.4375 -9.203125 9.4375 -8.265625 C 9.4375 -7.640625 9.28125 -7.109375 8.96875 -6.671875 C 8.65625 -6.242188 8.238281 -5.96875 7.71875 -5.84375 L 7.71875 -5.765625 C 8.394531 -5.578125 8.882812 -5.273438 9.1875 -4.859375 C 9.5 -4.441406 9.65625 -3.894531 9.65625 -3.21875 C 9.65625 -2.21875 9.28125 -1.429688 8.53125 -0.859375 C 7.78125 -0.285156 6.757812 0 5.46875 0 L 1.1875 0 Z M 4.15625 -6.78125 L 5.0625 -6.78125 C 5.476562 -6.78125 5.800781 -6.863281 6.03125 -7.03125 C 6.269531 -7.207031 6.390625 -7.472656 6.390625 -7.828125 C 6.390625 -8.441406 5.925781 -8.75 5 -8.75 L 4.15625 -8.75 Z M 4.15625 -4.609375 L 4.15625 -2.296875 L 5.203125 -2.296875 C 6.128906 -2.296875 6.59375 -2.6875 6.59375 -3.46875 C 6.59375 -3.832031 6.46875 -4.113281 6.21875 -4.3125 C 5.976562 -4.507812 5.617188 -4.609375 5.140625 -4.609375 Z M 4.15625 -4.609375 "/></g></g></g><g fill="#0d09c4" fill-opacity="1"><g transform="translate(187.684167, 265.481409)"><g/></g></g><g fill="#0d09c4" fill-opacity="1"><g transform="translate(195.124283, 265.481409)"><g><path d="M 10.53125 -5.734375 C 10.53125 -3.898438 10.023438 -2.484375 9.015625 -1.484375 C 8.003906 -0.492188 6.582031 0 4.75 0 L 1.1875 0 L 1.1875 -11 L 5 -11 C 6.757812 -11 8.117188 -10.546875 9.078125 -9.640625 C 10.046875 -8.742188 10.53125 -7.441406 10.53125 -5.734375 Z M 7.4375 -5.625 C 7.4375 -6.632812 7.238281 -7.378906 6.84375 -7.859375 C 6.445312 -8.347656 5.84375 -8.59375 5.03125 -8.59375 L 4.15625 -8.59375 L 4.15625 -2.4375 L 4.828125 -2.4375 C 5.722656 -2.4375 6.378906 -2.695312 6.796875 -3.21875 C 7.222656 -3.75 7.4375 -4.550781 7.4375 -5.625 Z M 7.4375 -5.625 "/></g></g></g><g fill="#0d09c4" fill-opacity="1"><g transform="translate(209.870681, 265.481409)"><g><path d="M 7.71875 0 L 1.1875 0 L 1.1875 -11 L 7.71875 -11 L 7.71875 -8.609375 L 4.15625 -8.609375 L 4.15625 -6.890625 L 7.453125 -6.890625 L 7.453125 -4.5 L 4.15625 -4.5 L 4.15625 -2.421875 L 7.71875 -2.421875 Z M 7.71875 0 "/></g></g></g><g fill="#0d09c4" fill-opacity="1"><g transform="translate(221.765297, 265.481409)"><g><path d="M 7.359375 -11 L 10.6875 -11 L 7.09375 0 L 3.59375 0 L 0 -11 L 3.34375 -11 L 4.84375 -5.421875 C 5.144531 -4.179688 5.3125 -3.320312 5.34375 -2.84375 C 5.382812 -3.1875 5.457031 -3.617188 5.5625 -4.140625 C 5.664062 -4.671875 5.757812 -5.085938 5.84375 -5.390625 Z M 7.359375 -11 "/></g></g></g></svg>